<svg id="BACKGROUND" xmlns="http://www.w3.org/2000/svg" viewBox="0 0 167 115"><defs><style>.cls-1,.cls-2{fill:none;stroke-miterlimit:10}.cls-1{stroke:#8bd2bd}.cls-2{stroke:#1d262d;stroke-width:2px}</style></defs><g id="Group_245" data-name="Group 245"><g id="Group_196" data-name="Group 196"><g id="Group_188" data-name="Group 188"><g id="Group_183" data-name="Group 183"><g id="Group_182" data-name="Group 182"><path id="Path_10" data-name="Path 10" class="cls-1" d="M23.91 84h-13m6.5 6.5v-13"/></g></g><g id="Group_185" data-name="Group 185"><g id="Group_184" data-name="Group 184"><path id="Path_11" data-name="Path 11" class="cls-1" d="M23.91 52h-13m6.5 6.5v-13"/></g></g><g id="Group_187" data-name="Group 187"><g id="Group_186" data-name="Group 186"><path id="Path_12" data-name="Path 12" class="cls-1" d="M23.91 21h-13m6.5 6.5v-13"/></g></g></g><g id="Group_195" data-name="Group 195"><g id="Group_190" data-name="Group 190"><g id="Group_189" data-name="Group 189"><path id="Path_13" data-name="Path 13" class="cls-2" d="M23.91 84h-13m6.5 6.5v-13"/></g></g><g id="Group_192" data-name="Group 192"><g id="Group_191" data-name="Group 191"><path id="Path_14" data-name="Path 14" class="cls-2" d="M23.91 52h-13m6.5 6.5v-13"/></g></g><g id="Group_194" data-name="Group 194"><g id="Group_193" data-name="Group 193"><path id="Path_15" data-name="Path 15" class="cls-2" d="M23.91 21h-13m6.5 6.5v-13"/></g></g></g></g><g id="Group_211" data-name="Group 211"><g id="Group_203" data-name="Group 203"><g id="Group_198" data-name="Group 198"><g id="Group_197" data-name="Group 197"><path id="Path_16" data-name="Path 16" class="cls-1" d="M53.91 84h-13m6.5 6.5v-13"/></g></g><g id="Group_200" data-name="Group 200"><g id="Group_199" data-name="Group 199"><path id="Path_17" data-name="Path 17" class="cls-1" d="M53.91 52h-13m6.5 6.5v-13"/></g></g><g id="Group_202" data-name="Group 202"><g id="Group_201" data-name="Group 201"><path id="Path_18" data-name="Path 18" class="cls-1" d="M53.91 21h-13m6.5 6.5v-13"/></g></g></g><g id="Group_210" data-name="Group 210"><g id="Group_205" data-name="Group 205"><g id="Group_204" data-name="Group 204"><path id="Path_19" data-name="Path 19" class="cls-2" d="M53.91 84h-13m6.5 6.5v-13"/></g></g><g id="Group_207" data-name="Group 207"><g id="Group_206" data-name="Group 206"><path id="Path_20" data-name="Path 20" class="cls-2" d="M53.91 52h-13m6.5 6.5v-13"/></g></g><g id="Group_209" data-name="Group 209"><g id="Group_208" data-name="Group 208"><path id="Path_21" data-name="Path 21" class="cls-2" d="M53.91 21h-13m6.5 6.5v-13"/></g></g></g></g><g id="Group_222" data-name="Group 222"><g id="Group_216" data-name="Group 216"><g id="Group_213" data-name="Group 213"><g id="Group_212" data-name="Group 212"><path id="Path_22" data-name="Path 22" class="cls-1" d="M83.91 52h-13m6.5 6.5v-13"/></g></g><g id="Group_215" data-name="Group 215"><g id="Group_214" data-name="Group 214"><path id="Path_23" data-name="Path 23" class="cls-1" d="M83.91 21h-13m6.5 6.5v-13"/></g></g></g><g id="Group_221" data-name="Group 221"><g id="Group_218" data-name="Group 218"><g id="Group_217" data-name="Group 217"><path id="Path_24" data-name="Path 24" class="cls-2" d="M83.91 52h-13m6.5 6.5v-13"/></g></g><g id="Group_220" data-name="Group 220"><g id="Group_219" data-name="Group 219"><path id="Path_25" data-name="Path 25" class="cls-2" d="M83.91 21h-13m6.5 6.5v-13"/></g></g></g></g><g id="Group_233" data-name="Group 233"><g id="Group_227" data-name="Group 227"><g id="Group_224" data-name="Group 224"><g id="Group_223" data-name="Group 223"><path id="Path_26" data-name="Path 26" class="cls-1" d="M113.91 52h-13m6.5 6.5v-13"/></g></g><g id="Group_226" data-name="Group 226"><g id="Group_225" data-name="Group 225"><path id="Path_27" data-name="Path 27" class="cls-1" d="M113.91 21h-13m6.5 6.5v-13"/></g></g></g><g id="Group_232" data-name="Group 232"><g id="Group_229" data-name="Group 229"><g id="Group_228" data-name="Group 228"><path id="Path_28" data-name="Path 28" class="cls-2" d="M113.91 52h-13m6.5 6.5v-13"/></g></g><g id="Group_231" data-name="Group 231"><g id="Group_230" data-name="Group 230"><path id="Path_29" data-name="Path 29" class="cls-2" d="M113.91 21h-13m6.5 6.5v-13"/></g></g></g></g><g id="Group_244" data-name="Group 244"><g id="Group_238" data-name="Group 238"><g id="Group_235" data-name="Group 235"><g id="Group_234" data-name="Group 234"><path id="Path_30" data-name="Path 30" class="cls-1" d="M143.91 52h-13m6.5 6.5v-13"/></g></g><g id="Group_237" data-name="Group 237"><g id="Group_236" data-name="Group 236"><path id="Path_31" data-name="Path 31" class="cls-1" d="M143.91 21h-13m6.5 6.5v-13"/></g></g></g><g id="Group_243" data-name="Group 243"><g id="Group_240" data-name="Group 240"><g id="Group_239" data-name="Group 239"><path id="Path_32" data-name="Path 32" class="cls-2" d="M143.91 52h-13m6.5 6.5v-13"/></g></g><g id="Group_242" data-name="Group 242"><g id="Group_241" data-name="Group 241"><path id="Path_33" data-name="Path 33" class="cls-2" d="M143.91 21h-13m6.5 6.5v-13"/></g></g></g></g></g></svg>