<svg data-name="Layer 1" xmlns="http://www.w3.org/2000/svg" width="437.551" height="512.629"><g data-name="Group 29"><circle data-name="Ellipse 108" cx="103.191" cy="179.225" r="30" fill="#2f2e41"/><circle data-name="Ellipse 109" cx="105.711" cy="184.721" r="24.561" fill="#a0616a"/><path data-name="Path 704" d="M199.25 259.429a10.519 10.519 0 00-1.073 1.264l-49.562-1.751-5.669-10.631-17.162 6.458 8.206 19.8a8 8 0 008.263 4.889l56.085-6.158a10.5 10.5 0 10.911-13.866z" fill="#a0616a"/><path data-name="Path 705" d="M119.182 264.329a4.812 4.812 0 01-2.643-3.017l-6.9-23.17a13.377 13.377 0 1124.208-11.391l13.372 20.235a4.817 4.817 0 01-1.98 7.02l-22.042 10.289a4.811 4.811 0 01-4.01.03z" fill="#ccc"/><path data-name="Path 706" d="M167.997 499.556l10.768-5.862-17.485-44.322-15.892 8.65z" fill="#a0616a"/><path data-name="Path 707" d="M163.337 497.535l21.205-11.544a15.386 15.386 0 0120.87 6.157l.24.44-34.72 18.9z" fill="#2f2e41"/><path data-name="Path 708" d="M49.51 499.604h12.26l5.832-47.288h-18.1z" fill="#a0616a"/><path data-name="Path 709" d="M46.382 495.602h24.145a15.386 15.386 0 0115.386 15.386v.5h-39.53z" fill="#2f2e41"/><path data-name="Path 710" d="M125.691 289.729l4 48 44.62 133.856a4 4 0 01-2.53 5.06q-.168.055-.339.096l-13.675 3.256a4 4 0 01-4.5-2.091L96.224 364.749a2 2 0 00-3.739.47l-25.1 114.363a4 4 0 01-3.907 3.142H50.752a3.993 3.993 0 01-4-3.986v-.068c1.166-79.3-2.68-169.653 27.936-183.946l5-13z" fill="#3f3d56"/><path data-name="Path 711" d="M78.251 285.129l-5.154-31.177a30.877 30.877 0 019.77-28.006 30.361 30.361 0 0128.33-6.925c.292.078.585.159.878.24a30.783 30.783 0 0122.222 27.347c.984 13.54.1 33.184-9.678 49.87l-.19.324z" fill="#ccc"/><path data-name="Path 712" d="M130.144 171.667a33.4 33.4 0 01-19.09 5.9 20.47 20.47 0 008.113 3.338 67.359 67.359 0 01-27.514.155 17.807 17.807 0 01-5.76-1.978 7.289 7.289 0 01-3.555-4.755c-.6-3.45 2.083-6.582 4.876-8.693a35.967 35.967 0 0130.224-6.04c3.376.873 6.758 2.347 8.951 5.059s2.843 6.892.753 9.684z" fill="#2f2e41"/><path data-name="Path 713" d="M102.797 149.077c2.847-11.5-7.357-24.268-19.2-24.03-12.013.244-20.854 11.1-26.93 21.465s-12.116 22.117-23.27 26.58A24.029 24.029 0 01.451 150.198c-1.5 12.593.577 26.219 8.7 35.96s23.233 14.13 34.1 7.584c6.2-3.74 10.17-10.237 13.438-16.7s6.178-13.28 11.131-18.564 12.612-8.792 19.506-6.57c2.736.884 5.191 2.6 8.018 3.127s6.386-.82 6.772-3.67z" fill="#2f2e41"/><path data-name="Path 714" d="M43.597 357.52a10.743 10.743 0 012.743-16.243l21.305-95.5 21.613 8.87-27.737 91.082a10.8 10.8 0 01-17.924 11.79z" fill="#a0616a"/><path data-name="Path 715" d="M59.206 259.479a4.812 4.812 0 01-.336-4l8.193-22.745a13.378 13.378 0 0126.245 5.2l-1.245 24.222a4.817 4.817 0 01-5.76 4.475l-23.85-4.8a4.812 4.812 0 01-3.246-2.357z" fill="#ccc"/></g><g data-name="Group 28" fill="#ccc"><path data-name="Path 410" d="M300.282 3.659A5.982 5.982 0 00294.814 0h-109.16a5.92 5.92 0 00-5.918 5.917v138.095a5.92 5.92 0 005.917 5.917h109.161a5.925 5.925 0 005.917-5.917V5.919a5.81 5.81 0 00-.449-2.26zm-.865 140.352a4.609 4.609 0 01-4.6 4.6H185.653a4.6 4.6 0 01-4.6-4.6V5.919a4.609 4.609 0 014.6-4.6h109.161a4.626 4.626 0 014.273 2.9 5.115 5.115 0 01.173.519 4.559 4.559 0 01.158 1.188z"/><path data-name="Path 411" d="M277.5 32.606h-32.88a2.63 2.63 0 010-5.261h32.878a2.631 2.631 0 010 5.261z"/><path data-name="Path 412" d="M277.5 46.416h-32.88a2.63 2.63 0 010-5.261h32.878a2.631 2.631 0 010 5.261z"/><path data-name="Path 413" d="M227.753 54.279H203.72a2.962 2.962 0 01-2.959-2.959V22.965a2.962 2.962 0 012.96-2.959h24.032a2.963 2.963 0 012.96 2.959V51.32a2.962 2.962 0 01-2.96 2.959z"/><path data-name="Path 414" d="M277.27 74.692h-74.307a2.63 2.63 0 010-5.261h74.307a2.63 2.63 0 010 5.261z"/><path data-name="Path 415" d="M277.27 88.506h-74.307a2.63 2.63 0 010-5.261h74.307a2.63 2.63 0 110 5.261z"/><path data-name="Path 416" d="M277.27 102.311h-74.307a2.63 2.63 0 010-5.261h74.307a2.63 2.63 0 010 5.261z"/><path data-name="Path 417" d="M277.27 116.124h-74.307a2.63 2.63 0 010-5.261h74.307a2.63 2.63 0 010 5.261z"/><path data-name="Path 418" d="M277.27 129.93h-74.307a2.63 2.63 0 010-5.261h74.307a2.63 2.63 0 010 5.261z"/></g><path data-name="Path 336" d="M366.21 85.198a7.6 7.6 0 00-6.95-4.65H220.535a7.524 7.524 0 00-7.52 7.52v175.5a7.524 7.524 0 007.52 7.52h138.73a7.53 7.53 0 007.52-7.52v-175.5a7.385 7.385 0 00-.57-2.87z" fill="#e6e6e6"/><path d="M354.914 261.234H225.27c-1.868-.002-3.331-2.046-3.331-4.653v-162.8c.002-2.609 1.465-4.652 3.33-4.652h129.645c1.87.002 3.332 2.046 3.332 4.653v162.8c-.002 2.608-1.466 4.652-3.332 4.652z" fill="#fff"/><path data-name="Path 336" d="M366.21 85.198a7.6 7.6 0 00-6.95-4.65H220.535a7.524 7.524 0 00-7.52 7.52v175.5a7.524 7.524 0 007.52 7.52h138.73a7.53 7.53 0 007.52-7.52v-175.5a7.385 7.385 0 00-.57-2.87zm-1.1 178.37a5.857 5.857 0 01-5.85 5.85H220.535a5.851 5.851 0 01-5.85-5.848V88.069a5.858 5.858 0 015.85-5.85h138.73a5.879 5.879 0 015.43 3.68 6.482 6.482 0 01.22.66 5.8 5.8 0 01.2 1.51z" fill="#3f3d56"/><path data-name="Path 337" d="M337.26 121.983h-41.786a3.343 3.343 0 010-6.686h41.786a3.343 3.343 0 110 6.686z" fill="#3f3d56"/><path data-name="Path 338" d="M337.26 139.533h-41.786a3.343 3.343 0 010-6.686h41.786a3.343 3.343 0 110 6.686z" fill="#3f3d56"/><path data-name="Path 339" d="M274.034 149.526h-30.537a3.765 3.765 0 01-3.76-3.761v-36.036a3.765 3.765 0 013.76-3.761h30.537a3.765 3.765 0 013.761 3.76v36.037a3.765 3.765 0 01-3.76 3.76z" fill="#4390f3"/><path data-name="Path 340" d="M336.97 175.469h-94.436a3.343 3.343 0 010-6.686h94.436a3.343 3.343 0 110 6.686z" fill="#e6e6e6"/><path data-name="Path 341" d="M336.97 193.019h-94.436a3.343 3.343 0 01-.018-6.686h94.454a3.343 3.343 0 010 6.686z" fill="#e6e6e6"/><path data-name="Path 342" d="M336.97 210.569h-94.436a3.343 3.343 0 010-6.686h94.436a3.343 3.343 0 11.019 6.686z" fill="#e6e6e6"/><path data-name="Path 343" d="M336.97 228.119h-94.436a3.343 3.343 0 11-.018-6.686h94.454a3.343 3.343 0 010 6.686z" fill="#e6e6e6"/><path data-name="Path 344" d="M336.97 245.669h-94.436a3.343 3.343 0 11-.018-6.686h94.454a3.343 3.343 0 010 6.686z" fill="#e6e6e6"/><circle data-name="Ellipse 44" cx="383.551" cy="67.629" r="54" fill="#4390f3"/><path data-name="Path 692" d="M392.056 69.42V39.629h-15.342v29.79h-7.163l7.416 12.846 7.418 12.847 7.418-12.847 7.417-12.847z" fill="#fff"/><path data-name="Path 717" d="M403.625 512.629h-381a1 1 0 110-2h381a1 1 0 010 2z" fill="#e6e6e6"/><path data-name="Path 694" d="M371.074 503.736c-9.6 6.915-22.039 7.262-34.063 6.413a247.287 247.287 0 01-5-.407h-.033a6.78 6.78 0 00-.235-.02l-1.02-.1.08.152.25.472-.27-.471-.082-.142c-3.115-5.421-6.2-11.04-6.992-17.23-.815-6.425 1.475-13.7 7.13-16.857a11.406 11.406 0 012.34-.981q.507-.15 1.028-.26a12.23 12.23 0 0114.223 15.9c4.794-4.916 3.9-12.89 2.246-19.555s-3.663-14.081-.293-20.067a13.233 13.233 0 018.865-6.232c.113-.024.227-.05.34-.07a17.848 17.848 0 0112.823 2.247c7.07 4.455 10.7 12.9 11.878 21.174 1.9 13.313-2.302 28.173-13.215 36.034z" fill="#f2f2f2"/></svg>