<svg xmlns="http://www.w3.org/2000/svg" viewBox="0 0 81 90"><g data-name="Group 342"><path data-name="Path 373" d="M43 64.93l-.91 1.68-4.48-8.27a20.77 20.77 0 01-2.18-7.51l-.72-6.68 3.61 1.33.37.16.95 9.62a21 21 0 002.18 7.51zm-21.42-8.28V24.57c0-6.51 2.85-11.79 6.38-11.79l13.54-.1-17.37.12c-3.53 0-6.39 5.28-6.39 11.79v32.06c0 6.51 2.86 11.79 6.39 11.79h3.32c-3.29-.51-5.87-5.59-5.87-11.79z" fill="#cee1f2"/><path data-name="Path 374" d="M49 69.72H29.05c-6.94 0-12.58-6.13-12.58-13.66v-31c0-7.53 5.64-13.65 12.58-13.65h28.53c6.94 0 12.59 6.12 12.59 13.65V46.9a2.1 2.1 0 01-4.2.21v-22c0-5-3.76-9.1-8.39-9.1H29.05c-4.62 0-8.39 4.08-8.39 9.1v31c0 5 3.77 9.11 8.39 9.11H49a2.28 2.28 0 010 4.55zm18.94-2.43a8.82 8.82 0 000-11.75l-7.35-8a14.77 14.77 0 00-7.76-4.5l-5.94-1.3a2 2 0 00-1.9.63 2.42 2.42 0 00-.57 2.06l1.19 6.44a16.92 16.92 0 004.15 8.42l7.35 8a7.24 7.24 0 0010.22.61 7 7 0 00.61-.61zM52 47.52a10.71 10.71 0 015.61 3.25l7.35 8a4 4 0 010 5.32 3.26 3.26 0 01-4.61.27l-.28-.27-7.35-8a12.17 12.17 0 01-3-6.09l-.57-3.1z" fill="#1273eb"/><path data-name="Path 375" d="M61.15 29.07h-24c-1.45 0-2.62-.57-2.62-1.28s1.17-1.27 2.62-1.27h24c1.45 0 2.63.57 2.63 1.27s-1.18 1.28-2.63 1.28zm2.63 3.83c0-.7-1.18-1.28-2.63-1.28H25.48c-1.45 0-2.63.58-2.63 1.28s1.18 1.28 2.63 1.28h35.67c1.45 0 2.63-.57 2.63-1.28zM37.54 38c0-.71-1.17-1.28-2.62-1.28h-9.44c-1.45 0-2.63.57-2.63 1.28s1.18 1.28 2.63 1.28h9.44c1.45 0 2.62-.57 2.62-1.28zM22.85 27.67c0 .88 1.47 1.6 3.28 1.6s3.28-.72 3.28-1.6-1.47-1.6-3.28-1.6-3.28.71-3.28 1.6z" fill="#374957"/></g></svg>