<svg version="1.1" id="圖層_1" xmlns="http://www.w3.org/2000/svg" x="0" y="0" viewBox="0 0 70 70" xml:space="preserve"><style>.st0{fill:#fff}</style><path id="XMLID_4_" class="st0" d="M65.5 18.9h-61c-2.1 0-3.7-1.7-3.7-3.7 0-2.1 1.7-3.7 3.7-3.7h61c2.1 0 3.7 1.7 3.7 3.7.1 2.1-1.6 3.7-3.7 3.7z"/><path id="XMLID_3_" class="st0" d="M65.5 38.7h-61C2.4 38.7.8 37 .8 35c0-2.1 1.7-3.7 3.7-3.7h61c2.1 0 3.7 1.7 3.7 3.7.1 2.1-1.6 3.7-3.7 3.7z"/><path id="XMLID_2_" class="st0" d="M65.5 58.5h-61c-2.1 0-3.7-1.7-3.7-3.7 0-2.1 1.7-3.7 3.7-3.7h61c2.1 0 3.7 1.7 3.7 3.7.1 2.1-1.6 3.7-3.7 3.7z"/></svg>