<svg data-name="Layer 1" xmlns="http://www.w3.org/2000/svg" width="928.758" height="567.737"><path d="M722.123 403.133a10.056 10.056 0 00.801-15.399l14.412-32.7-18.309 3.103-10.879 30.577a10.11 10.11 0 0013.975 14.419z" fill="#a0616a"/><path d="M749.706 258.245l-5.246-1.05s-7.345 3.148-6.295 12.59-14.689 59.804-14.689 59.804l-14.164 41.967 19.935 4.197 13.114-48.263z" fill="#ccc"/><path d="M773.5 418.737h-114a8.51 8.51 0 01-8.5-8.5v-11a8.51 8.51 0 018.5-8.5h114a8.51 8.51 0 018.5 8.5v11a8.51 8.51 0 01-8.5 8.5z" fill="#1dadef"/><path fill="#a0616a" d="M766.749 539.503l-11.501 4.245-21.849-42.341 16.975-6.266 16.375 44.362z"/><path d="M745.82 543.494l22.18-8.187 5.156 13.966-36.147 13.342a14.887 14.887 0 018.81-19.12z" fill="#2f2e41"/><path fill="#a0616a" d="M788.731 557.111l-12.248-.556-3.684-47.504 18.076.821-2.144 47.239z"/><path d="M767.552 552.85h23.644v14.887h-38.53a14.887 14.887 0 0114.886-14.887zm-33.584-189.688a64.582 64.582 0 00-15.886 39.06l-4.049 75.3 35.672 62.951 19.935-10.491-24.131-47.213 14.688-45.115 39.87-31.475-3.148-45.115z" fill="#2f2e41"/><path fill="#2f2e41" d="M789.574 401.982l10.492 4.197-8.393 144.786-24.131-3.147-7.345-110.164 29.377-35.672z"/><path d="M767.248 387.767a10.056 10.056 0 0113.38-7.663l22.68-27.615 5.491 17.739-22.378 23.504a10.11 10.11 0 01-19.173-5.965z" fill="#a0616a"/><circle cx="775.619" cy="216.383" r="24.561" fill="#a0616a"/><path d="M812.132 262.966s-28.328-26.754-67.148-6.295c0 0-9.967 101.246-16.262 111.737 0 0 54.557-7.344 69.246-3.147 0 0 0-44.066 9.442-60.852s4.722-41.443 4.722-41.443z" fill="#ccc"/><path d="M801.115 265.589l11.512-2.127a29.456 29.456 0 0112.62 14.717c4.196 10.492 15.737 61.902 15.737 61.902l-45.115 45.114-9.442-13.64 28.327-37.77-14.688-31.475z" fill="#ccc"/><path d="M796.628 229.524a2.135 2.135 0 00-1.857-2.82 4.93 4.93 0 00-3.476 1.716 13.833 13.833 0 01-3.071 2.637c-1.188.599-2.8.514-3.477-.628-.636-1.072-.2-2.508.185-3.754a36.907 36.907 0 001.63-9.77c.11-3.7-.411-7.562-2.46-10.448-2.644-3.725-7.371-5.139-11.845-5.036s-8.876 1.484-13.307 2.357c-1.53.301-3.329.455-4.352-.73-1.088-1.261-.688-3.302-.226-5.004 1.201-4.418 2.475-8.985 5.266-12.553a18.898 18.898 0 0112.06-6.79 28.938 28.938 0 0113.463 1.529 36.096 36.096 0 0117.683 12.318 29.236 29.236 0 015.578 21.6 26.667 26.667 0 01-9.886 16.855" fill="#2f2e41"/><path d="M542 422H9a9.01 9.01 0 01-9-9V9a9.01 9.01 0 019-9h533a9.01 9.01 0 019 9v404a9.01 9.01 0 01-9 9zM9 2a7.008 7.008 0 00-7 7v404a7.008 7.008 0 007 7h533a7.008 7.008 0 007-7V9a7.008 7.008 0 00-7-7z" fill="#e6e6e6"/><path d="M490 96H61a9.01 9.01 0 01-9-9V56a9.01 9.01 0 019-9h429a9.01 9.01 0 019 9v31a9.01 9.01 0 01-9 9zM61 49a7.008 7.008 0 00-7 7v31a7.008 7.008 0 007 7h429a7.008 7.008 0 007-7V56a7.008 7.008 0 00-7-7zm170 130H61a9.01 9.01 0 01-9-9v-31a9.01 9.01 0 019-9h170a9.01 9.01 0 019 9v31a9.01 9.01 0 01-9 9zM61 132a7.008 7.008 0 00-7 7v31a7.008 7.008 0 007 7h170a7.008 7.008 0 007-7v-31a7.008 7.008 0 00-7-7zm429 47H320a9.01 9.01 0 01-9-9v-31a9.01 9.01 0 019-9h170a9.01 9.01 0 019 9v31a9.01 9.01 0 01-9 9zm-170-47a7.008 7.008 0 00-7 7v31a7.008 7.008 0 007 7h170a7.008 7.008 0 007-7v-31a7.008 7.008 0 00-7-7z" fill="#3f3d56"/><path d="M490.5 375h-114a8.51 8.51 0 01-8.5-8.5v-11a8.51 8.51 0 018.5-8.5h114a8.51 8.51 0 018.5 8.5v11a8.51 8.51 0 01-8.5 8.5zM80 231a8 8 0 118-8 8.01 8.01 0 01-8 8zm0-14a6 6 0 106 6 6.007 6.007 0 00-6-6zm0 40a8 8 0 118-8 8.01 8.01 0 01-8 8zm0-14a6 6 0 106 6 6.007 6.007 0 00-6-6z" fill="#e6e6e6"/><path d="M80 283a8 8 0 118-8 8.01 8.01 0 01-8 8zm0-14a6 6 0 106 6 6.007 6.007 0 00-6-6z" fill="#3f3d56"/><path d="M119 216.5a6.5 6.5 0 000 13h93a6.5 6.5 0 000-13zm0 26a6.5 6.5 0 000 13h93a6.5 6.5 0 000-13zm0 26a6.5 6.5 0 000 13h93a6.5 6.5 0 000-13zM339.5 231a8 8 0 118-8 8.01 8.01 0 01-8 8zm0-14a6 6 0 106 6 6.007 6.007 0 00-6-6z" fill="#e6e6e6"/><path d="M339.5 257a8 8 0 118-8 8.01 8.01 0 01-8 8zm0-14a6 6 0 106 6 6.007 6.007 0 00-6-6z" fill="#3f3d56"/><path d="M339.5 283a8 8 0 118-8 8.01 8.01 0 01-8 8zm0-14a6 6 0 106 6 6.007 6.007 0 00-6-6zm0 40a8 8 0 118-8 8.01 8.01 0 01-8 8zm0-14a6 6 0 106 6 6.007 6.007 0 00-6-6zm38-78.5a6.5 6.5 0 100 13h93a6.5 6.5 0 000-13zm0 26a6.5 6.5 0 100 13h93a6.5 6.5 0 000-13zm0 26a6.5 6.5 0 100 13h93a6.5 6.5 0 000-13zm0 26a6.5 6.5 0 100 13h93a6.5 6.5 0 000-13zM80.127 148a6.5 6.5 0 100 13h111a6.5 6.5 0 000-13z" fill="#e6e6e6"/><path d="M80.127 65a6.5 6.5 0 100 13h111a6.5 6.5 0 000-13zm129.256 85.324a.5.5 0 00-.433.75l4.244 7.352a.5.5 0 00.866 0l4.244-7.352a.5.5 0 00-.433-.75z" fill="#1dadef"/><path d="M339.127 148a6.5 6.5 0 000 13h111a6.5 6.5 0 000-13z" fill="#e6e6e6"/><path d="M468.383 150.324a.5.5 0 00-.433.75l4.244 7.352a.5.5 0 00.866 0l4.244-7.352a.5.5 0 00-.433-.75z" fill="#1dadef"/><circle cx="339.5" cy="249" r="4" fill="#1dadef"/><circle cx="80" cy="275" r="4" fill="#1dadef"/><path d="M927.567 567.737H607.273a1.19 1.19 0 010-2.382h320.294a1.19 1.19 0 010 2.382z" fill="#3f3d56"/></svg>