<svg id="BACKGROUND" xmlns="http://www.w3.org/2000/svg" viewBox="0 0 1440 500"><defs><style>.cls-1{fill:#63a7d9;opacity:.37;isolation:isolate}</style></defs><path id="Rectangle_1618" data-name="Rectangle 1618" class="cls-1" transform="rotate(-45.97 1274.471 156.791)" d="M1262.9 35.31h23v243h-23z"/><path id="Rectangle_88" data-name="Rectangle 88" fill="#0568b2" d="M-58.5-49.5h1537v605h-1537z"/><path id="Rectangle_1618-2" data-name="Rectangle 1618" class="cls-1" d="M1190.18 39.87L1315.5 146.1l-11.47 10.4-125.32-106.23 11.47-10.4z"/><path id="Rectangle_1620" data-name="Rectangle 1620" class="cls-1" transform="rotate(-45.97 175.893 318.65)" d="M172.38 268.64h7v100h-7z"/><path id="Rectangle_1621" data-name="Rectangle 1621" class="cls-1" transform="rotate(-45.97 108.093 287.652)" d="M104.58 237.64h7v100h-7z"/><path id="Rectangle_1618-3" data-name="Rectangle 1618" class="cls-1" d="M1258.16 325.64l125.32 106.23-11.47 10.4-125.32-106.23 11.47-10.4z"/><path id="Rectangle_1620-2" data-name="Rectangle 1620" class="cls-1" transform="rotate(-45.97 1274.159 288.068)" d="M1270.59 238.08h7v100h-7z"/><path id="Rectangle_1620-3" data-name="Rectangle 1620" class="cls-1" transform="rotate(-45.97 108.093 98.09)" d="M104.59 48.08h7v100h-7z"/><path id="Rectangle_1618-4" data-name="Rectangle 1618" class="cls-1" d="M157.16 76.77L282.48 183l-11.47 10.4L145.69 87.17l11.47-10.4z"/><path id="Rectangle_1618-5" data-name="Rectangle 1618" class="cls-1" d="M438.16 260.77L563.48 367l-11.47 10.4-125.32-106.23 11.47-10.4z"/><path id="Rectangle_1620-4" data-name="Rectangle 1620" class="cls-1" transform="rotate(-45.97 602.128 356.087)" d="M598.59 306.08h7v100h-7z"/><path id="Rectangle_1618-6" data-name="Rectangle 1618" class="cls-1" d="M506.16 156.77L631.48 263l-11.47 10.4-125.32-106.23 11.47-10.4z"/><path id="Rectangle_1620-5" data-name="Rectangle 1620" class="cls-1" transform="rotate(-45.97 682.127 397.085)" d="M678.59 347.08h7v100h-7z"/><path id="Rectangle_1618-7" data-name="Rectangle 1618" class="cls-1" d="M870.16 98.77L995.48 205l-11.47 10.4L858.7 109.17l11.46-10.4z"/><path id="Rectangle_1618-8" data-name="Rectangle 1618" class="cls-1" d="M955.16 229.77L1080.48 336l-11.47 10.4L943.7 240.17l11.46-10.4z"/><path id="Rectangle_1620-6" data-name="Rectangle 1620" class="cls-1" transform="rotate(-45.97 710.13 135.074)" d="M706.59 85.08h7v100h-7z"/><path id="Rectangle_1618-9" data-name="Rectangle 1618" class="cls-1" d="M477.16 362.77L602.48 469l-11.47 10.4-125.32-106.23 11.47-10.4z"/><path id="Rectangle_1620-7" data-name="Rectangle 1620" class="cls-1" transform="rotate(-45.97 889.141 261.075)" d="M885.59 211.08h7v100h-7z"/></svg>